P3
50 40
255
176 207 255
176 207 255
176 207 255
175 207 255
175 207 255
175 207 255
175 207 255
175 207 255
175 207 255
175 207 255
175 207 255
175 207 255
175 207 255
175 207 255
175 207 255
175 207 255
175 207 255
175 207 255
175 207 255
175 207 255
175 207 255
175 207 255
175 207 255
175 207 255
175 207 255
175 207 255
175 207 255
175 207 255
175 207 255
175 207 255
175 207 255
175 207 255
175 207 255
175 207 255
175 207 255
175 207 255
175 207 255
175 207 255
175 207 255
175 207 255
175 207 255
175 207 255
175 207 255
175 207 255
175 207 255
175 207 255
176 207 255
176 207 255
176 207 255
176 207 255
176 208 255
176 208 255
176 208 255
176 208 255
176 208 255
176 208 255
176 208 255
176 208 255
176 208 255
176 208 255
176 208 255
176 208 255
176 208 255
176 208 255
176 208 255
176 208 255
176 208 255
176 208 255
176 208 255
176 208 255
176 208 255
176 208 255
176 208 255
176 208 255
176 208 255
176 208 255
176 208 255
176 208 255
176 208 255
176 208 255
176 208 255
176 208 255
176 208 255
176 208 255
176 208 255
176 208 255
176 208 255
176 208 255
176 208 255
176 208 255
176 208 255
176 208 255
176 208 255
176 208 255
176 208 255
176 208 255
176 208 255
176 208 255
176 208 255
176 208 255
177 208 255
177 208 255
177 208 255
177 208 255
177 208 255
177 208 255
177 208 255
177 208 255
177 208 255
177 208 255
177 208 255
177 208 255
177 208 255
177 208 255
177 208 255
177 208 255
177 208 255
177 208 255
177 208 255
177 208 255
177 208 255
177 208 255
177 208 255
177 208 255
177 208 255
177 208 255
177 208 255
177 208 255
177 208 255
177 208 255
177 208 255
177 208 255
177 208 255
177 208 255
177 208 255
177 208 255
177 208 255
177 208 255
177 208 255
177 208 255
177 208 255
177 208 255
177 208 255
177 208 255
177 208 255
177 208 255
177 208 255
177 208 255
177 208 255
177 208 255
178 209 255
178 209 255
178 209 255
178 209 255
178 209 255
178 209 255
178 209 255
178 209 255
178 209 255
178 209 255
178 209 255
178 209 255
178 209 255
178 209 255
178 209 255
178 209 255
178 209 255
178 209 255
178 209 255
178 209 255
177 208 255
177 208 255
177 208 255
177 208 255
177 208 255
178 209 255
177 208 255
177 208 255
177 208 255
178 209 255
177 208 255
178 209 255
178 209 255
178 209 255
178 209 255
178 209 255
178 209 255
178 209 255
178 209 255
178 209 255
178 209 255
178 209 255
178 209 255
178 209 255
178 209 255
178 209 255
178 209 255
178 209 255
178 209 255
178 209 255
179 209 255
179 209 255
179 209 255
179 209 255
179 209 255
179 209 255
179 209 255
178 209 255
179 209 255
178 209 255
178 209 255
178 209 255
178 209 255
178 209 255
178 209 255
178 209 255
178 209 255
178 209 255
178 209 255
178 209 255
178 209 255
178 205 250
176 192 235
168 155 189
173 175 214
171 167 204
176 184 224
175 184 224
178 209 255
178 209 255
178 209 255
178 209 255
178 209 255
178 209 255
178 209 255
178 209 255
178 209 255
178 209 255
178 209 255
178 209 255
178 209 255
178 209 255
179 209 255
179 209 255
179 209 255
179 209 255
179 209 255
179 209 255
179 209 255
179 209 255
180 210 255
179 210 255
179 210 255
179 210 255
179 210 255
179 210 255
179 210 255
179 210 255
179 210 255
179 210 255
179 210 255
179 210 255
179 210 255
179 210 255
179 209 255
179 209 255
179 209 255
176 193 235
169 142 173
156 80 97
157 63 76
149 8 10
146 0 0
149 0 0
147 0 0
145 0 0
148 0 0
148 0 0
150 8 10
154 54 66
160 59 71
168 142 173
178 201 245
179 209 255
179 209 255
179 210 255
179 209 255
179 210 255
179 210 255
179 210 255
179 210 255
179 210 255
179 210 255
179 210 255
179 210 255
179 210 255
179 210 255
179 210 255
179 210 255
180 210 255
180 210 255
180 210 255
180 210 255
180 210 255
180 210 255
180 210 255
180 210 255
180 210 255
180 210 255
180 210 255
180 210 255
180 210 255
180 210 255
180 210 255
180 210 255
174 172 209
162 84 102
150 4 5
147 0 0
149 0 0
151 0 0
148 0 0
154 0 0
149 0 0
149 0 0
142 0 0
151 0 0
148 0 0
149 0 0
148 0 0
145 0 0
148 0 0
150 0 0
158 71 87
171 155 189
180 210 255
180 210 255
180 210 255
180 210 255
180 210 255
180 210 255
180 210 255
180 210 255
180 210 255
180 210 255
180 210 255
180 210 255
180 210 255
180 210 255
180 210 255
181 211 255
181 211 255
181 211 255
181 211 255
181 211 255
181 211 255
181 211 255
181 211 255
181 211 255
181 211 255
181 211 255
181 210 255
181 210 255
178 177 214
162 76 92
152 0 0
152 0 0
159 0 0
155 0 0
154 0 0
158 0 0
157 0 0
155 0 0
155 0 0
149 0 0
154 0 0
154 0 0
157 0 0
158 0 0
163 0 0
156 0 0
152 0 0
155 0 0
156 0 0
152 0 0
160 80 97
177 181 219
181 210 255
181 211 255
181 211 255
181 211 255
181 211 255
181 211 255
181 211 255
181 211 255
181 211 255
181 211 255
181 211 255
181 211 255
181 211 255
182 211 255
182 211 255
182 211 255
182 211 255
182 211 255
182 211 255
182 211 255
182 211 255
182 211 255
182 211 255
182 211 255
182 211 255
169 93 112
152 8 10
159 0 0
150 0 0
159 0 0
154 0 0
155 0 0
156 0 0
162 0 0
158 0 0
159 0 0
159 0 0
156 0 0
158 0 0
158 0 0
156 0 0
157 0 0
161 0 0
160 0 0
160 0 0
160 0 0
152 0 0
154 0 0
153 0 0
158 4 5
176 127 153
182 211 255
182 211 255
182 211 255
182 211 255
182 211 255
182 211 255
182 211 255
182 211 255
182 211 255
182 211 255
182 211 255
182 211 255
183 212 255
183 212 255
183 212 255
183 212 255
183 212 255
183 212 255
183 212 255
183 212 255
183 212 255
182 211 255
181 190 230
164 59 71
156 0 0
157 0 0
165 0 0
158 0 0
157 0 0
162 0 0
164 0 0
164 0 0
157 0 0
159 0 0
166 0 0
162 0 0
163 0 0
165 0 0
161 0 0
164 0 0
166 0 0
160 0 0
159 0 0
164 0 0
160 0 0
163 0 0
160 0 0
162 0 0
159 0 0
159 0 0
167 63 76
180 190 230
182 211 255
182 211 255
182 211 255
182 211 255
183 212 255
183 212 255
183 212 255
183 212 255
183 212 255
183 212 255
184 212 255
183 212 255
183 212 255
183 212 255
183 212 255
183 212 255
183 212 255
183 212 255
183 212 255
181 195 235
164 34 41
162 0 0
158 0 0
167 0 0
165 0 0
165 0 0
163 0 0
163 0 0
165 0 0
164 0 0
163 0 0
171 0 0
164 0 0
167 0 0
161 0 0
168 0 0
161 0 0
163 0 0
160 0 0
163 0 0
161 0 0
165 0 0
165 0 0
166 0 0
163 0 0
159 0 0
162 0 0
160 0 0
158 0 0
164 51 61
183 199 240
183 212 255
183 212 255
183 212 255
183 212 255
183 212 255
183 212 255
183 212 255
183 212 255
183 212 255
184 213 255
184 213 255
184 213 255
184 213 255
184 213 255
184 212 255
184 212 255
184 213 255
184 200 240
169 30 36
162 0 0
165 0 0
170 0 0
166 0 0
169 0 0
162 0 0
169 0 0
173 0 0
162 0 0
170 0 0
169 0 0
174 0 0
169 0 0
165 0 0
161 0 0
165 0 0
170 0 0
175 0 0
168 0 0
174 0 0
167 0 0
164 0 0
170 0 0
166 0 0
160 0 0
168 0 0
171 0 0
159 0 0
162 0 0
168 0 0
170 38 46
183 187 224
184 213 255
184 212 255
184 213 255
184 213 255
184 213 255
184 213 255
184 213 255
184 213 255
185 213 255
185 213 255
185 213 255
185 213 255
185 213 255
185 213 255
185 213 255
185 213 255
178 102 122
169 0 0
169 0 0
166 0 0
173 0 0
176 0 0
168 0 0
172 0 0
171 0 0
173 0 0
169 0 0
173 0 0
171 0 0
171 0 0
171 0 0
168 0 0
173 0 0
164 0 0
171 0 0
168 0 0
172 0 0
174 0 0
171 0 0
164 0 0
165 0 0
174 0 0
168 0 0
171 0 0
169 0 0
171 0 0
170 0 0
172 0 0
168 0 0
170 94 112
185 213 255
185 213 255
185 213 255
185 213 255
185 213 255
185 213 255
185 213 255
185 213 255
186 214 255
186 214 255
186 214 255
186 214 255
186 214 255
186 214 255
186 213 255
178 145 173
174 0 0
168 0 0
168 0 0
174 0 0
181 0 0
174 0 0
176 0 0
166 0 0
167 0 0
174 0 0
177 0 0
164 0 0
167 0 0
172 0 0
177 0 0
171 0 0
180 0 0
169 0 0
166 0 0
178 0 0
179 0 0
176 0 0
170 0 0
172 0 0
174 0 0
173 0 0
176 0 0
175 0 0
175 0 0
169 0 0
177 0 0
171 0 0
170 0 0
168 4 5
183 171 204
186 213 255
186 214 255
186 214 255
186 214 255
186 214 255
186 214 255
186 214 255
187 214 255
187 214 255
187 214 255
187 214 255
187 214 255
187 214 255
187 214 255
184 64 76
176 0 0
170 0 0
171 0 0
173 0 0
184 0 0
186 0 0
175 0 0
168 0 0
174 0 0
177 0 0
178 0 0
179 0 0
173 0 0
178 0 0
184 0 0
177 0 0
178 0 0
178 0 0
174 0 0
176 0 0
173 0 0
172 0 0
176 0 0
174 0 0
171 0 0
175 0 0
183 0 0
180 0 0
175 0 0
175 0 0
176 0 0
177 0 0
173 0 0
177 0 0
174 64 76
187 214 255
187 214 255
187 214 255
187 214 255
187 214 255
187 214 255
187 214 255
188 215 255
187 214 255
188 215 255
188 215 255
188 215 255
187 214 255
183 163 194
175 0 0
175 0 0
179 0 0
178 0 0
172 0 0
174 0 0
180 0 0
177 0 0
181 0 0
180 0 0
176 0 0
183 0 0
178 0 0
181 0 0
169 0 0
180 0 0
186 0 0
178 0 0
173 0 0
178 0 0
172 0 0
180 0 0
177 0 0
173 0 0
178 0 0
177 0 0
181 0 0
178 0 0
177 0 0
180 0 0
174 0 0
174 0 0
174 0 0
173 0 0
179 0 0
173 0 0
186 189 224
187 214 255
188 215 255
188 215 255
188 215 255
188 215 255
187 214 255
188 215 255
188 215 255
188 215 255
188 215 255
188 215 255
188 215 255
183 99 117
179 0 0
175 0 0
173 0 0
177 0 0
180 0 0
176 0 0
180 0 0
181 0 0
191 0 0
181 0 0
183 0 0
183 0 0
177 0 0
185 0 0
183 0 0
180 0 0
182 0 0
181 0 0
178 0 0
185 0 0
173 0 0
176 0 0
182 0 0
182 0 0
187 0 0
181 0 0
188 0 0
179 0 0
179 0 0
179 0 0
184 0 0
181 0 0
179 0 0
175 0 0
179 0 0
180 0 0
182 112 133
188 215 255
188 215 255
188 215 255
188 215 255
188 215 255
188 215 255
189 216 255
189 216 255
189 216 255
189 216 255
189 216 255
189 215 255
188 47 56
180 0 0
177 0 0
187 0 0
186 0 0
179 0 0
184 0 0
182 0 0
182 0 0
184 0 0
180 0 0
181 0 0
176 0 0
182 0 0
185 0 0
184 0 0
188 0 0
189 0 0
183 0 0
186 0 0
181 0 0
181 0 0
180 0 0
186 0 0
187 0 0
183 0 0
187 0 0
180 0 0
184 0 0
186 0 0
180 0 0
184 0 0
183 0 0
188 0 0
186 0 0
183 0 0
186 0 0
181 52 61
189 215 255
189 215 255
189 216 255
189 215 255
189 216 255
189 216 255
190 216 255
190 216 255
190 216 255
190 216 255
190 216 255
190 216 255
188 4 5
184 0 0
185 0 0
188 0 0
193 0 0
193 0 0
189 0 0
185 0 0
185 0 0
183 0 0
190 0 0
183 0 0
184 0 0
191 0 0
188 0 0
185 0 0
190 0 0
184 0 0
189 0 0
191 0 0
185 0 0
183 0 0
182 0 0
184 0 0
189 0 0
178 0 0
191 0 0
183 0 0
191 0 0
189 0 0
191 0 0
181 0 0
185 0 0
191 0 0
182 0 0
187 0 0
184 0 0
186 4 5
190 216 255
190 216 255
190 216 255
190 216 255
190 216 255
190 216 255
191 216 255
191 217 255
191 217 255
191 217 255
191 216 255
192 199 235
192 0 0
192 0 0
188 0 0
188 0 0
189 0 0
194 0 0
191 0 0
196 0 0
189 0 0
191 0 0
195 0 0
191 0 0
188 0 0
182 0 0
198 0 0
196 0 0
188 0 0
193 0 0
189 0 0
190 0 0
190 0 0
192 0 0
189 0 0
191 0 0
186 0 0
190 0 0
191 0 0
200 0 0
190 0 0
189 0 0
193 0 0
188 0 0
189 0 0
193 0 0
192 0 0
189 0 0
188 0 0
188 0 0
191 212 250
191 217 255
191 217 255
191 216 255
191 217 255
191 216 255
192 217 255
192 217 255
192 217 255
192 217 255
192 217 255
192 204 240
179 0 0
197 0 0
197 0 0
196 0 0
188 0 0
188 0 0
196 0 0
194 0 0
193 0 0
193 0 0
192 0 0
186 0 0
190 0 0
194 0 0
192 0 0
189 0 0
194 0 0
191 0 0
188 0 0
189 0 0
197 0 0
195 0 0
196 0 0
189 0 0
192 0 0
197 0 0
197 0 0
191 0 0
189 0 0
197 0 0
192 0 0
195 0 0
196 0 0
195 0 0
191 0 0
196 0 0
193 0 0
185 0 0
192 217 255
192 217 255
192 217 255
192 217 255
192 217 255
192 217 255
192 217 255
192 217 255
192 217 255
193 218 255
192 217 255
192 217 255
192 4 5
198 0 0
194 0 0
195 0 0
199 0 0
197 0 0
194 0 0
193 0 0
200 0 0
191 0 0
196 0 0
193 0 0
197 0 0
198 0 0
202 0 0
194 0 0
203 0 0
194 0 0
198 0 0
195 0 0
198 0 0
191 0 0
196 0 0
196 0 0
195 0 0
196 0 0
188 0 0
195 0 0
196 0 0
192 0 0
205 0 0
192 0 0
197 0 0
197 0 0
192 0 0
198 0 0
198 0 0
195 4 5
192 217 255
192 217 255
193 218 255
192 217 255
193 218 255
192 217 255
193 218 255
193 218 255
193 218 255
193 218 255
193 218 255
193 218 255
201 52 61
199 0 0
201 0 0
192 0 0
207 0 0
194 0 0
192 0 0
199 0 0
196 0 0
201 0 0
202 0 0
202 0 0
202 0 0
197 0 0
192 0 0
196 0 0
196 0 0
191 0 0
200 0 0
197 0 0
200 0 0
199 0 0
207 0 0
196 0 0
197 0 0
198 0 0
194 0 0
197 0 0
198 0 0
203 0 0
199 0 0
199 0 0
205 0 0
198 0 0
199 0 0
206 0 0
194 0 0
193 44 51
193 218 255
193 218 255
193 218 255
193 218 255
193 218 255
193 218 255
194 218 255
194 218 255
194 218 255
194 219 255
194 219 255
194 219 255
197 118 138
202 0 0
197 0 0
205 0 0
199 0 0
204 0 0
199 0 0
205 0 0
202 0 0
203 0 0
198 0 0
201 0 0
200 0 0
204 0 0
197 0 0
197 0 0
203 0 0
200 0 0
201 0 0
198 0 0
203 0 0
202 0 0
207 0 0
203 0 0
200 0 0
202 0 0
201 0 0
203 0 0
204 0 0
195 0 0
200 0 0
202 0 0
198 0 0
201 0 0
196 0 0
198 0 0
204 0 0
197 96 112
194 218 255
194 219 255
194 219 255
194 218 255
194 218 255
194 219 255
195 219 255
195 219 255
195 219 255
195 219 255
195 219 255
195 219 255
198 180 209
207 0 0
205 0 0
209 0 0
202 0 0
201 0 0
202 0 0
203 0 0
203 0 0
204 0 0
209 0 0
205 0 0
206 0 0
201 0 0
196 0 0
203 0 0
204 0 0
209 0 0
204 0 0
208 0 0
204 0 0
203 0 0
210 0 0
202 0 0
200 0 0
205 0 0
201 0 0
205 0 0
203 0 0
203 0 0
208 0 0
205 0 0
202 0 0
210 0 0
205 0 0
200 0 0
208 0 0
196 180 209
195 219 255
195 219 255
195 219 255
195 219 255
195 219 255
195 219 255
196 219 255
196 219 255
196 220 255
196 219 255
196 220 255
196 220 255
196 219 255
203 57 66
209 0 0
214 0 0
204 0 0
211 0 0
210 0 0
211 0 0
208 0 0
209 0 0
214 0 0
211 0 0
208 0 0
208 0 0
205 0 0
203 0 0
200 0 0
209 0 0
210 0 0
209 0 0
205 0 0
206 0 0
212 0 0
209 0 0
204 0 0
209 0 0
206 0 0
209 0 0
208 0 0
205 0 0
208 0 0
209 0 0
212 0 0
204 0 0
209 0 0
213 0 0
203 44 51
196 220 255
196 220 255
196 219 255
196 219 255
196 219 255
196 220 255
196 219 255
197 220 255
197 220 255
197 220 255
197 220 255
197 220 255
197 220 255
197 220 255
203 154 178
212 4 5
210 0 0
205 0 0
209 0 0
214 0 0
210 0 0
214 0 0
205 0 0
202 0 0
208 0 0
209 0 0
214 0 0
207 0 0
217 0 0
208 0 0
205 0 0
207 0 0
209 0 0
216 0 0
215 0 0
213 0 0
212 0 0
217 0 0
207 0 0
207 0 0
213 0 0
214 0 0
206 0 0
213 0 0
214 0 0
214 0 0
213 0 0
206 0 0
215 0 0
202 163 189
197 220 255
197 220 255
197 220 255
197 220 255
197 220 255
197 220 255
197 220 255
197 220 255
197 220 255
197 220 255
197 220 255
197 220 255
197 220 255
198 221 255
198 221 255
208 79 92
215 0 0
207 0 0
216 0 0
213 0 0
214 0 0
207 0 0
219 0 0
211 0 0
212 0 0
211 0 0
213 0 0
208 0 0
212 0 0
212 0 0
217 0 0
211 0 0
216 0 0
208 0 0
210 0 0
218 0 0
217 0 0
207 0 0
218 0 0
211 0 0
212 0 0
221 0 0
216 0 0
217 0 0
207 0 0
212 0 0
216 0 0
215 0 0
209 88 102
198 221 255
198 221 255
198 221 255
197 220 255
197 220 255
197 220 255
197 220 255
197 220 255
198 221 255
198 221 255
198 221 255
198 221 255
198 221 255
198 221 255
198 221 255
198 221 255
198 212 245
211 57 66
214 0 0
214 0 0
210 0 0
210 0 0
220 0 0
216 0 0
221 0 0
214 0 0
214 0 0
213 0 0
218 0 0
217 0 0
223 0 0
215 0 0
210 0 0
211 0 0
218 0 0
214 0 0
224 0 0
218 0 0
218 0 0
215 0 0
216 0 0
213 0 0
219 0 0
214 0 0
217 0 0
220 0 0
213 0 0
222 0 0
212 71 82
199 217 250
198 221 255
198 221 255
198 221 255
198 221 255
198 221 255
198 221 255
198 221 255
198 221 255
199 221 255
199 221 255
199 221 255
199 221 255
199 221 255
199 221 255
199 222 255
199 222 255
199 222 255
202 199 230
215 53 61
219 0 0
222 0 0
223 0 0
217 0 0
208 0 0
217 0 0
223 0 0
213 0 0
210 0 0
215 0 0
216 0 0
212 0 0
216 0 0
215 0 0
219 0 0
220 0 0
222 0 0
224 0 0
224 0 0
213 0 0
217 0 0
224 0 0
212 0 0
223 0 0
214 0 0
218 0 0
218 0 0
223 0 0
224 27 31
199 217 250
199 221 255
199 222 255
199 221 255
199 221 255
199 221 255
199 221 255
199 221 255
199 221 255
199 221 255
200 222 255
200 222 255
200 222 255
200 222 255
200 222 255
200 222 255
200 222 255
200 222 255
200 222 255
200 222 255
201 218 250
214 44 51
227 0 0
223 0 0
222 0 0
221 0 0
226 0 0
219 0 0
215 0 0
220 0 0
224 0 0
223 0 0
225 0 0
219 0 0
215 0 0
215 0 0
224 0 0
231 0 0
223 0 0
214 0 0
221 0 0
216 0 0
221 0 0
218 0 0
223 0 0
224 0 0
223 0 0
224 0 0
216 71 82
200 222 255
200 222 255
200 222 255
200 222 255
200 222 255
200 222 255
200 222 255
200 222 255
200 222 255
200 222 255
200 222 255
201 222 255
201 222 255
201 222 255
201 222 255
201 222 255
201 222 255
201 222 255
201 222 255
201 222 255
201 222 255
201 223 255
201 222 255
217 93 107
228 4 5
227 0 0
231 0 0
228 0 0
222 0 0
227 0 0
225 0 0
226 0 0
227 0 0
224 0 0
224 0 0
221 0 0
227 0 0
221 0 0
229 0 0
226 0 0
224 0 0
224 0 0
227 0 0
225 0 0
227 0 0
226 0 0
221 0 0
229 0 0
217 107 122
201 223 255
201 223 255
201 223 255
201 222 255
201 222 255
201 222 255
201 222 255
201 222 255
201 222 255
201 222 255
201 222 255
201 222 255
201 223 255
201 223 255
201 223 255
201 223 255
202 223 255
202 223 255
202 223 255
202 223 255
202 223 255
202 223 255
202 223 255
202 223 255
202 223 255
205 196 224
219 71 82
229 0 0
224 0 0
235 0 0
225 0 0
227 0 0
227 0 0
228 0 0
229 0 0
230 0 0
229 0 0
229 0 0
230 0 0
230 0 0
233 0 0
227 0 0
231 0 0
226 0 0
227 0 0
228 0 0
230 0 0
217 80 92
203 201 230
202 223 255
202 223 255
202 223 255
202 223 255
202 223 255
202 223 255
202 223 255
202 223 255
202 223 255
201 223 255
202 223 255
201 223 255
201 223 255
202 223 255
202 223 255
202 223 255
202 223 255
202 223 255
202 223 255
202 223 255
202 223 255
202 223 255
202 223 255
202 223 255
202 223 255
202 223 255
203 224 255
203 224 255
210 179 204
224 76 87
234 4 5
226 0 0
236 0 0
235 0 0
234 0 0
230 0 0
231 0 0
233 0 0
234 0 0
228 0 0
236 0 0
233 0 0
232 0 0
230 0 0
230 0 0
232 4 5
218 103 117
210 174 199
203 224 255
202 223 255
203 224 255
202 223 255
202 223 255
202 223 255
202 223 255
202 223 255
202 223 255
202 223 255
202 223 255
202 223 255
202 223 255
202 223 255
202 223 255
203 224 255
203 224 255
203 224 255
203 224 255
203 224 255
203 224 255
203 224 255
203 224 255
203 224 255
203 224 255
203 224 255
203 224 255
203 224 255
203 224 255
203 224 255
203 224 255
203 224 255
205 211 240
215 148 168
222 94 107
232 31 36
234 9 10
236 0 0
237 0 0
236 0 0
236 0 0
239 0 0
237 0 0
236 4 5
234 45 51
220 117 133
216 152 173
204 215 245
203 224 255
203 224 255
203 224 255
203 224 255
203 224 255
203 224 255
203 224 255
203 224 255
203 224 255
203 224 255
203 224 255
203 224 255
203 224 255
203 224 255
203 224 255
203 224 255
203 224 255
204 224 255
204 224 255
204 224 255
204 224 255
204 224 255
204 224 255
204 224 255
204 224 255
204 224 255
204 224 255
204 224 255
204 224 255
204 224 255
204 224 255
204 224 255
204 224 255
204 224 255
204 224 255
204 225 255
204 224 255
204 225 255
205 220 250
207 211 240
211 180 204
216 157 178
213 175 199
211 175 199
206 211 240
205 220 250
204 225 255
204 225 255
204 224 255
204 224 255
204 225 255
204 224 255
204 224 255
204 224 255
204 224 255
204 224 255
204 224 255
204 224 255
204 224 255
204 224 255
204 224 255
204 224 255
204 224 255
204 224 255
204 224 255
204 224 255
204 224 255
205 225 255
205 225 255
205 225 255
205 225 255
205 225 255
205 225 255
205 225 255
205 225 255
205 225 255
205 225 255
205 225 255
205 225 255
205 225 255
205 225 255
205 225 255
205 225 255
205 225 255
205 225 255
205 225 255
205 225 255
205 225 255
205 225 255
205 225 255
205 225 255
205 225 255
205 225 255
205 225 255
205 225 255
205 225 255
205 225 255
205 225 255
205 225 255
205 225 255
205 225 255
205 225 255
205 225 255
205 225 255
205 225 255
205 225 255
205 225 255
205 225 255
205 225 255
205 225 255
205 225 255
205 225 255
205 225 255
205 225 255
205 225 255
205 225 255
205 225 255
205 225 255
205 225 255
205 225 255
205 225 255
206 225 255
205 225 255
206 225 255
206 225 255
206 225 255
206 225 255
206 225 255
206 225 255
206 225 255
206 225 255
206 225 255
206 225 255
206 225 255
206 225 255
206 225 255
206 225 255
206 226 255
206 225 255
206 226 255
206 225 255
206 225 255
206 225 255
206 225 255
206 225 255
206 225 255
206 226 255
206 225 255
206 225 255
206 225 255
206 225 255
206 225 255
206 225 255
206 225 255
206 225 255
206 225 255
206 225 255
206 225 255
206 225 255
206 225 255
206 225 255
205 225 255
205 225 255
205 225 255
205 225 255
205 225 255
205 225 255
206 226 255
206 226 255
206 226 255
206 226 255
206 226 255
206 226 255
206 226 255
206 226 255
206 226 255
206 226 255
206 226 255
206 226 255
206 226 255
206 226 255
206 226 255
207 226 255
207 226 255
206 226 255
207 226 255
207 226 255
207 226 255
207 226 255
207 226 255
207 226 255
207 226 255
207 226 255
207 226 255
207 226 255
207 226 255
207 226 255
207 226 255
207 226 255
206 226 255
206 226 255
207 226 255
206 226 255
206 226 255
206 226 255
206 226 255
206 226 255
206 226 255
206 226 255
206 226 255
206 226 255
206 226 255
206 226 255
206 226 255
206 226 255
206 226 255
206 226 255
207 226 255
207 226 255
207 226 255
207 226 255
207 226 255
207 226 255
207 226 255
207 226 255
207 226 255
207 226 255
207 226 255
207 226 255
207 226 255
207 226 255
207 226 255
207 226 255
207 226 255
207 226 255
207 226 255
207 226 255
207 226 255
207 226 255
207 226 255
207 226 255
207 226 255
207 226 255
207 226 255
207 226 255
207 226 255
207 226 255
207 226 255
207 226 255
207 226 255
207 226 255
207 226 255
207 226 255
207 226 255
207 226 255
207 226 255
207 226 255
207 226 255
207 226 255
207 226 255
207 226 255
207 226 255
207 226 255
207 226 255
207 226 255
207 226 255
207 226 255
