P3
50 40
255
176 207 255
176 207 255
176 207 255
176 207 255
176 207 255
175 207 255
175 207 255
175 207 255
175 207 255
175 207 255
175 207 255
175 207 255
175 207 255
175 207 255
175 207 255
175 207 255
175 207 255
175 207 255
175 207 255
175 207 255
175 207 255
175 207 255
175 207 255
175 207 255
175 207 255
175 207 255
175 207 255
175 207 255
175 207 255
175 207 255
175 207 255
175 207 255
175 207 255
175 207 255
175 207 255
175 207 255
175 207 255
175 207 255
175 207 255
175 207 255
175 207 255
175 207 255
175 207 255
175 207 255
175 207 255
175 207 255
175 207 255
176 207 255
176 207 255
176 207 255
176 208 255
176 208 255
176 208 255
176 208 255
176 208 255
176 208 255
176 208 255
176 208 255
176 208 255
176 208 255
176 208 255
176 208 255
176 208 255
176 208 255
176 208 255
176 208 255
176 208 255
176 208 255
176 208 255
176 208 255
176 208 255
176 208 255
176 208 255
176 208 255
176 208 255
176 208 255
176 208 255
176 208 255
176 208 255
176 208 255
176 208 255
176 208 255
176 208 255
176 208 255
176 208 255
176 208 255
176 208 255
176 208 255
176 208 255
176 208 255
176 208 255
176 208 255
176 208 255
176 208 255
176 208 255
176 208 255
176 208 255
176 208 255
176 208 255
176 208 255
177 208 255
177 208 255
177 208 255
177 208 255
177 208 255
177 208 255
177 208 255
177 208 255
177 208 255
177 208 255
177 208 255
177 208 255
177 208 255
177 208 255
177 208 255
177 208 255
177 208 255
177 208 255
177 208 255
177 208 255
177 208 255
177 208 255
177 208 255
177 208 255
177 208 255
177 208 255
177 208 255
177 208 255
177 208 255
177 208 255
177 208 255
177 208 255
177 208 255
177 208 255
177 208 255
177 208 255
177 208 255
177 208 255
177 208 255
177 208 255
177 208 255
177 208 255
177 208 255
177 208 255
177 208 255
177 208 255
177 208 255
177 208 255
177 208 255
177 208 255
178 209 255
178 209 255
178 209 255
178 209 255
178 209 255
178 209 255
178 209 255
178 209 255
178 209 255
178 209 255
178 209 255
178 209 255
178 209 255
178 209 255
178 209 255
178 209 255
177 208 255
178 209 255
178 209 255
178 209 255
178 209 255
177 208 255
177 208 255
178 209 255
177 208 255
177 208 255
177 208 255
178 209 255
178 209 255
178 209 255
178 209 255
178 209 255
178 209 255
178 209 255
178 209 255
177 208 255
178 209 255
178 209 255
178 209 255
178 209 255
178 209 255
178 209 255
178 209 255
178 209 255
178 209 255
178 209 255
178 209 255
178 209 255
178 209 255
178 209 255
179 209 255
179 209 255
179 209 255
179 209 255
179 209 255
179 209 255
179 209 255
178 209 255
178 209 255
179 209 255
178 209 255
178 209 255
178 209 255
178 209 255
178 209 255
178 209 255
178 209 255
178 209 255
178 209 255
178 209 255
178 209 255
178 209 255
173 203 249
158 188 233
149 179 223
156 185 229
167 197 242
170 201 246
173 203 249
178 209 255
178 209 255
178 209 255
178 209 255
178 209 255
178 209 255
178 209 255
178 209 255
178 209 255
178 209 255
178 209 255
178 209 255
178 209 255
178 209 255
179 209 255
179 209 255
179 209 255
179 209 255
179 209 255
179 209 255
179 209 255
179 210 255
179 210 255
179 210 255
179 210 255
179 210 255
179 210 255
179 210 255
179 210 255
179 210 255
179 210 255
179 210 255
179 209 255
179 209 255
179 210 255
179 209 255
179 209 255
179 210 255
173 203 249
145 174 216
119 146 186
100 126 164
85 110 147
83 109 147
87 111 147
86 111 147
84 109 147
84 109 147
85 110 147
88 112 149
109 135 175
119 146 186
142 171 214
173 203 249
179 209 255
179 209 255
179 209 255
179 210 255
179 210 255
179 210 255
179 210 255
179 210 255
179 210 255
179 210 255
179 210 255
179 210 255
179 210 255
179 210 255
179 210 255
179 210 255
180 210 255
180 210 255
180 210 255
180 210 255
180 210 255
180 210 255
180 210 255
180 210 255
180 210 255
180 210 255
180 210 255
180 210 255
180 210 255
180 210 255
180 210 255
180 210 255
172 202 246
124 151 190
92 117 154
85 110 147
87 111 147
86 110 147
87 111 147
87 111 147
87 111 147
84 109 147
86 111 147
88 112 147
89 112 147
86 110 147
89 112 147
88 112 147
86 110 147
91 114 149
126 152 190
161 190 233
180 210 255
180 210 255
180 210 255
180 210 255
180 210 255
180 210 255
180 210 255
180 210 255
180 210 255
180 210 255
180 210 255
180 210 255
180 210 255
180 210 255
180 210 255
181 211 255
181 211 255
181 211 255
181 211 255
181 211 255
181 211 255
181 211 255
181 211 255
181 211 255
181 210 255
181 211 255
181 210 255
181 210 255
161 189 231
117 142 180
86 110 147
87 111 147
88 112 147
88 111 147
91 114 147
89 112 147
90 113 147
87 111 147
91 114 147
88 112 147
88 112 147
87 111 147
88 112 147
88 112 147
89 112 147
90 113 147
86 111 147
90 113 147
87 111 147
88 112 149
112 137 175
164 193 236
181 211 255
181 211 255
181 210 255
181 211 255
181 211 255
181 211 255
181 211 255
181 211 255
181 211 255
181 211 255
181 211 255
181 211 255
181 211 255
182 211 255
182 211 255
182 211 255
182 211 255
182 211 255
182 211 255
182 211 255
182 211 255
182 211 255
182 211 255
182 211 255
180 209 253
133 159 199
94 115 147
91 114 147
89 112 147
89 112 147
90 113 147
93 115 147
91 113 147
90 113 147
90 113 147
91 114 147
89 112 147
90 113 147
92 114 147
94 115 147
90 113 147
91 113 147
89 112 147
91 114 147
90 113 147
91 113 147
91 113 147
89 113 147
92 114 147
93 116 149
134 160 199
180 209 253
182 211 255
182 211 255
182 211 255
182 211 255
182 211 255
182 211 255
182 211 255
182 211 255
182 211 255
182 211 255
182 211 255
183 212 255
183 212 255
183 212 255
183 212 255
183 212 255
183 212 255
183 212 255
183 212 255
182 211 255
182 211 255
173 201 244
122 147 184
93 115 147
94 115 147
91 114 147
95 116 147
94 115 147
91 114 147
93 114 147
93 115 147
93 115 147
95 116 147
96 116 147
91 113 147
98 118 147
92 114 147
93 115 147
93 115 147
91 114 147
95 116 147
92 114 147
92 114 147
93 115 147
89 112 147
95 116 147
92 114 147
96 116 147
91 113 147
114 139 177
177 205 249
183 212 255
183 212 255
182 211 255
183 212 255
183 212 255
183 212 255
183 212 255
183 212 255
183 212 255
183 212 255
183 212 255
183 212 255
183 212 255
183 212 255
183 212 255
183 212 255
183 212 255
183 212 255
183 212 255
173 200 242
108 130 162
96 116 147
95 116 147
95 116 147
94 115 147
92 114 147
93 114 147
97 117 147
98 118 147
95 116 147
94 115 147
95 116 147
95 116 147
96 116 147
94 115 147
95 116 147
96 116 147
94 116 147
92 114 147
96 116 147
97 117 147
94 115 147
100 119 147
97 117 147
92 114 147
93 115 147
94 115 147
94 115 147
96 117 147
111 135 171
183 212 255
183 212 255
183 212 255
183 212 255
183 212 255
183 212 255
183 212 255
183 212 255
183 212 255
183 212 255
184 213 255
184 213 255
184 213 255
184 213 255
184 213 255
184 213 255
184 213 255
184 212 255
184 213 255
111 132 164
95 116 147
97 117 147
94 115 147
96 116 147
97 117 147
99 119 147
96 116 147
94 115 147
98 118 147
93 115 147
97 117 147
96 116 147
92 114 147
94 116 147
97 117 147
95 116 147
99 118 147
97 117 147
99 118 147
93 115 147
94 115 147
96 116 147
96 117 147
98 117 147
97 117 147
94 115 147
98 118 147
93 115 147
95 116 147
94 115 147
115 137 171
183 211 253
184 213 255
184 213 255
184 212 255
184 213 255
184 213 255
184 213 255
184 213 255
184 213 255
185 213 255
185 213 255
185 213 255
185 213 255
185 213 255
185 213 255
185 213 255
185 213 255
128 151 186
94 115 147
98 117 147
96 117 147
97 117 147
97 117 147
98 118 147
96 117 147
97 117 147
95 116 147
96 117 147
97 117 147
97 117 147
100 119 147
99 119 147
101 120 147
99 118 147
98 118 147
99 118 147
98 118 147
99 118 147
100 119 147
100 119 147
98 118 147
96 116 147
99 119 147
99 119 147
96 117 147
94 115 147
94 115 147
99 118 147
100 119 147
93 115 147
140 166 203
185 213 255
185 213 255
185 213 255
185 213 255
185 213 255
185 213 255
185 213 255
185 213 255
186 214 255
186 214 255
186 214 255
186 214 255
186 214 255
186 214 255
186 213 255
159 184 221
99 119 149
92 114 147
98 118 147
98 118 147
98 118 147
98 118 147
98 118 147
101 120 147
100 119 147
100 119 147
98 118 147
98 118 147
100 119 147
98 118 147
97 117 147
100 119 147
98 118 147
98 118 147
100 119 147
102 120 147
99 118 147
98 117 147
100 119 147
99 118 147
100 119 147
97 117 147
96 117 147
99 118 147
99 118 147
101 120 147
97 117 147
100 119 147
98 118 147
99 118 147
167 193 231
186 213 255
186 214 255
186 214 255
186 214 255
186 214 255
186 214 255
186 214 255
187 214 255
187 214 255
187 214 255
187 214 255
187 214 255
187 214 255
187 214 255
116 136 167
97 117 147
101 120 147
104 121 147
100 119 147
103 120 147
103 121 147
100 119 147
101 120 147
101 119 147
101 120 147
104 121 147
100 119 147
102 120 147
102 120 147
101 120 147
103 121 147
103 121 147
103 121 147
101 119 147
104 121 147
101 119 147
102 120 147
102 120 147
102 120 147
101 120 147
105 122 147
101 119 147
103 121 147
102 120 147
97 117 147
105 122 147
101 119 147
99 118 147
99 118 147
129 151 184
187 214 255
187 214 255
187 214 255
187 214 255
187 214 255
187 214 255
187 214 255
188 215 255
188 215 255
188 215 255
188 215 255
187 214 255
188 215 255
174 200 240
101 119 147
102 120 147
101 120 147
107 123 147
103 121 147
107 123 147
103 120 147
103 121 147
105 122 147
99 118 147
101 120 147
105 122 147
102 120 147
104 121 147
103 121 147
99 118 147
102 120 147
102 120 147
106 122 147
105 122 147
104 122 147
106 123 147
107 123 147
104 121 147
106 122 147
107 123 147
107 123 147
106 123 147
102 120 147
101 119 147
106 122 147
103 121 147
101 119 147
103 121 147
104 121 147
102 120 147
174 198 236
187 214 255
188 215 255
187 214 255
187 214 255
187 214 255
188 215 255
188 215 255
188 215 255
188 215 255
188 215 255
188 215 255
188 215 255
148 169 201
103 121 147
105 122 147
102 120 147
99 118 147
104 121 147
106 123 147
107 123 147
104 121 147
107 123 147
108 124 147
105 122 147
109 124 147
106 122 147
106 123 147
103 121 147
105 122 147
105 122 147
104 121 147
103 121 147
104 121 147
104 121 147
109 124 147
100 119 147
109 125 147
102 120 147
107 123 147
102 120 147
106 122 147
109 124 147
103 121 147
104 121 147
109 124 147
102 120 147
103 121 147
101 120 147
102 120 147
145 167 199
188 215 255
188 215 255
188 215 255
188 215 255
188 215 255
188 215 255
189 216 255
189 215 255
189 216 255
189 215 255
189 215 255
189 215 255
121 139 167
108 124 147
105 122 147
104 121 147
102 120 147
105 122 147
106 122 147
106 123 147
108 124 147
109 124 147
106 123 147
109 125 147
107 123 147
106 122 147
104 122 147
104 122 147
106 123 147
108 123 147
104 121 147
105 122 147
103 121 147
107 123 147
105 122 147
104 121 147
108 124 147
107 123 147
108 123 147
108 123 147
108 124 147
108 124 147
108 124 147
106 123 147
103 121 147
109 124 147
106 123 147
104 121 147
107 123 147
126 146 175
189 216 255
189 215 255
189 216 255
189 216 255
189 216 255
189 215 255
190 216 255
190 216 255
190 216 255
190 216 255
190 216 255
190 216 255
104 122 149
108 124 147
112 126 147
109 124 147
104 122 147
110 125 147
107 123 147
111 126 147
107 123 147
104 121 147
109 124 147
110 125 147
104 122 147
112 126 147
110 125 147
106 123 147
105 122 147
111 126 147
107 123 147
107 123 147
108 124 147
114 127 147
106 122 147
105 122 147
109 124 147
107 123 147
111 125 147
106 123 147
107 123 147
107 123 147
111 125 147
106 123 147
110 125 147
109 124 147
107 123 147
105 122 147
111 125 147
107 123 147
190 216 255
190 216 255
190 216 255
190 216 255
190 216 255
190 216 255
191 217 255
191 217 255
191 217 255
191 217 255
191 216 255
186 211 249
108 123 147
112 126 147
109 124 147
111 125 147
108 124 147
111 125 147
109 125 147
107 123 147
111 126 147
109 124 147
112 126 147
111 126 147
112 126 147
108 124 147
109 125 147
110 125 147
113 127 147
116 128 147
107 123 147
113 127 147
110 125 147
110 125 147
106 122 147
111 126 147
109 124 147
108 124 147
114 128 147
108 124 147
107 123 147
107 123 147
109 124 147
108 124 147
112 126 147
109 124 147
105 122 147
109 124 147
111 126 147
108 124 147
188 213 251
191 216 255
191 216 255
191 217 255
191 216 255
191 217 255
192 217 255
192 217 255
192 217 255
192 217 255
192 217 255
186 211 249
112 126 147
109 124 147
110 125 147
112 126 147
109 124 147
115 128 147
111 126 147
111 126 147
112 126 147
110 125 147
111 125 147
110 125 147
110 125 147
112 126 147
110 125 147
109 124 147
112 126 147
111 125 147
114 127 147
112 126 147
111 125 147
112 126 147
114 128 147
106 123 147
115 128 147
114 128 147
112 126 147
115 128 147
111 125 147
107 123 147
113 127 147
114 127 147
112 126 147
114 128 147
110 125 147
113 126 147
112 126 147
110 125 147
188 213 251
192 217 255
192 217 255
192 217 255
192 217 255
192 217 255
193 218 255
192 217 255
192 217 255
193 218 255
192 217 255
193 218 255
120 134 154
117 129 147
117 129 147
110 125 147
112 126 147
111 125 147
110 125 147
111 125 147
110 125 147
113 127 147
113 127 147
115 128 147
114 127 147
111 125 147
115 128 147
115 128 147
115 128 147
113 127 147
111 126 147
111 125 147
115 128 147
108 124 147
114 127 147
118 130 147
110 125 147
117 129 147
118 130 147
109 124 147
113 127 147
115 128 147
118 129 147
112 126 147
112 126 147
111 125 147
110 125 147
110 125 147
115 128 147
122 135 156
193 218 255
193 218 255
193 218 255
192 217 255
193 218 255
192 217 255
193 218 255
193 218 255
193 218 255
193 218 255
193 218 255
193 218 255
136 152 175
114 127 147
113 127 147
119 130 147
110 125 147
114 127 147
115 128 147
117 129 147
119 130 147
115 128 147
115 128 147
113 127 147
116 129 147
112 126 147
114 127 147
117 129 147
115 128 147
116 128 147
114 127 147
115 128 147
121 131 147
113 127 147
115 128 147
114 127 147
121 132 147
111 125 147
114 127 147
115 128 147
113 127 147
112 126 147
118 130 147
115 128 147
111 125 147
117 129 147
118 129 147
117 129 147
110 125 147
128 143 167
193 218 255
193 218 255
193 218 255
193 218 255
193 218 255
193 218 255
194 218 255
194 218 255
194 218 255
194 219 255
194 218 255
194 218 255
147 166 195
115 128 147
119 130 147
116 128 147
118 129 147
116 129 147
118 129 147
112 126 147
116 129 147
118 130 147
113 127 147
116 128 147
115 128 147
116 129 147
116 129 147
117 129 147
115 128 147
118 130 147
115 128 147
114 127 147
115 128 147
114 127 147
118 130 147
114 127 147
120 131 147
118 129 147
117 129 147
115 128 147
118 130 147
114 127 147
117 129 147
114 127 147
121 131 147
116 129 147
117 129 147
117 129 147
115 128 147
140 156 180
194 218 255
194 219 255
194 219 255
194 218 255
194 218 255
194 218 255
195 219 255
195 219 255
195 219 255
195 219 255
195 219 255
195 219 255
181 203 236
119 130 147
120 131 147
118 130 147
119 130 147
119 130 147
117 129 147
121 132 147
117 129 147
116 129 147
118 130 147
117 129 147
117 129 147
121 132 147
116 128 147
114 127 147
117 129 147
118 130 147
118 129 147
123 132 147
117 129 147
117 129 147
115 128 147
119 130 147
116 129 147
119 130 147
120 131 147
122 132 147
116 129 147
119 130 147
115 128 147
119 130 147
123 132 147
118 130 147
118 130 147
118 130 147
119 131 147
183 205 238
195 219 255
195 219 255
195 219 255
195 219 255
195 219 255
195 219 255
196 219 255
196 219 255
196 219 255
196 220 255
196 219 255
196 220 255
196 220 255
135 149 169
120 131 147
120 131 147
119 131 147
115 128 147
122 132 147
119 130 147
123 133 147
120 131 147
121 131 147
119 130 147
119 130 147
117 129 147
120 131 147
118 130 147
120 131 147
122 132 147
117 129 147
119 130 147
118 129 147
118 130 147
120 131 147
122 132 147
122 132 147
120 131 147
117 129 147
119 130 147
119 131 147
122 132 147
121 132 147
122 132 147
117 129 147
117 129 147
121 132 147
119 130 147
133 146 164
196 219 255
196 220 255
196 219 255
196 220 255
196 219 255
196 219 255
196 219 255
197 220 255
197 220 255
197 220 255
197 220 255
197 220 255
197 220 255
197 220 255
176 196 225
126 136 149
121 132 147
126 134 147
121 131 147
122 132 147
125 134 147
121 132 147
120 131 147
122 132 147
119 131 147
122 132 147
119 130 147
121 132 147
118 130 147
121 132 147
119 130 147
119 130 147
119 130 147
118 130 147
121 132 147
121 131 147
124 134 147
121 131 147
117 129 147
122 132 147
119 130 147
121 131 147
120 131 147
125 134 147
121 131 147
127 135 147
118 130 147
118 130 147
124 133 147
179 199 229
197 220 255
197 220 255
197 220 255
197 220 255
197 220 255
197 220 255
197 220 255
197 220 255
197 220 255
197 220 255
197 220 255
197 220 255
198 221 255
197 220 255
198 221 255
154 169 190
126 134 147
126 134 147
122 132 147
124 133 147
125 134 147
123 133 147
124 133 147
123 133 147
122 132 147
125 134 147
123 132 147
121 131 147
121 131 147
120 131 147
124 133 147
122 132 147
126 134 147
122 132 147
120 131 147
118 130 147
122 132 147
126 134 147
122 132 147
119 130 147
121 132 147
122 132 147
121 132 147
125 134 147
123 133 147
123 133 147
123 133 147
123 133 147
156 170 192
198 221 255
198 221 255
198 221 255
197 220 255
197 220 255
197 220 255
197 220 255
197 220 255
198 221 255
198 221 255
198 221 255
198 221 255
198 221 255
198 221 255
198 221 255
198 221 255
197 219 253
149 159 173
127 135 147
126 134 147
126 134 147
122 132 147
123 133 147
125 134 147
123 133 147
124 133 147
124 133 147
125 134 147
123 133 147
125 134 147
122 132 147
125 134 147
125 134 147
125 134 147
126 135 147
124 133 147
126 135 147
123 133 147
127 135 147
124 133 147
124 133 147
127 135 147
126 134 147
122 132 147
124 134 147
124 134 147
127 135 147
126 134 147
137 147 162
194 216 249
198 221 255
198 221 255
198 221 255
198 221 255
198 221 255
198 221 255
198 221 255
198 221 255
199 221 255
199 221 255
199 221 255
199 221 255
199 221 255
199 221 255
199 221 255
199 222 255
199 222 255
199 222 255
143 153 169
128 136 147
127 135 147
127 135 147
128 136 147
125 134 147
127 135 147
127 135 147
125 134 147
125 134 147
125 134 147
126 134 147
125 134 147
126 134 147
127 135 147
121 132 147
127 135 147
127 135 147
126 135 147
131 137 147
125 134 147
123 133 147
128 136 147
126 134 147
126 135 147
124 133 147
129 136 147
124 133 147
130 137 147
142 153 169
196 218 251
199 222 255
199 221 255
199 221 255
199 221 255
199 221 255
199 221 255
199 221 255
199 221 255
199 221 255
200 222 255
200 222 255
200 222 255
200 222 255
200 222 255
200 222 255
200 222 255
200 222 255
200 222 255
200 222 255
194 215 246
149 161 180
127 135 147
132 138 147
130 137 147
127 135 147
128 136 147
129 137 147
130 137 147
128 136 147
129 137 147
125 134 147
131 137 147
125 134 147
126 135 147
128 136 147
125 134 147
126 135 147
128 136 147
129 136 147
127 135 147
129 136 147
129 136 147
130 137 147
130 137 147
130 137 147
129 136 147
129 136 147
146 155 169
197 219 251
200 222 255
200 222 255
200 222 255
200 222 255
200 222 255
200 222 255
200 222 255
200 222 255
200 222 255
200 222 255
201 222 255
201 222 255
201 222 255
201 222 255
201 222 255
201 222 255
201 222 255
201 222 255
201 222 255
201 223 255
201 223 255
200 221 253
163 178 199
134 140 149
132 138 147
131 138 147
129 136 147
133 138 147
131 138 147
133 139 147
129 136 147
127 135 147
128 136 147
128 136 147
127 135 147
128 136 147
131 138 147
129 136 147
127 135 147
128 136 147
129 136 147
132 138 147
131 137 147
129 136 147
131 137 147
132 138 147
136 145 158
169 185 208
201 223 255
201 222 255
201 222 255
201 223 255
201 222 255
201 222 255
201 222 255
201 222 255
201 222 255
201 222 255
201 222 255
201 222 255
201 223 255
201 223 255
201 223 255
202 223 255
202 223 255
202 223 255
202 223 255
202 223 255
202 223 255
202 223 255
202 223 255
202 223 255
202 223 255
196 215 244
151 160 173
133 139 147
133 139 147
133 138 147
134 140 147
132 138 147
131 137 147
132 138 147
132 138 147
131 138 147
132 138 147
133 138 147
130 137 147
132 138 147
132 138 147
132 138 147
131 138 147
132 138 147
133 139 147
132 138 147
134 139 147
153 164 180
194 213 242
202 223 255
202 223 255
202 223 255
202 223 255
202 223 255
202 223 255
202 223 255
202 223 255
202 223 255
202 223 255
201 223 255
201 223 255
201 223 255
202 223 255
202 223 255
202 223 255
202 223 255
202 223 255
202 223 255
202 223 255
202 223 255
202 223 255
202 223 255
202 223 255
202 223 255
202 223 255
202 223 255
203 224 255
185 202 227
167 179 197
138 143 152
134 139 147
136 141 147
134 139 147
136 140 147
134 140 147
136 140 147
133 139 147
134 139 147
137 141 147
135 140 147
132 138 147
134 139 147
136 140 147
134 139 147
141 148 158
164 177 197
191 209 236
203 224 255
202 223 255
202 223 255
202 223 255
202 223 255
202 223 255
202 223 255
202 223 255
202 223 255
202 223 255
202 223 255
202 223 255
202 223 255
202 223 255
202 223 255
203 224 255
203 224 255
203 224 255
203 224 255
203 224 255
203 224 255
203 224 255
203 224 255
203 224 255
203 224 255
203 224 255
203 224 255
203 224 255
203 224 255
203 224 255
203 224 255
203 224 255
199 219 249
178 192 214
167 179 197
150 159 171
137 141 147
137 141 147
135 140 147
136 141 147
135 140 147
136 140 147
135 140 147
140 145 154
150 158 171
162 171 186
189 205 229
200 220 251
203 224 255
203 224 255
203 224 255
203 224 255
203 224 255
203 224 255
203 224 255
203 224 255
203 224 255
203 224 255
203 224 255
203 224 255
203 224 255
203 224 255
203 224 255
203 224 255
203 224 255
204 224 255
204 224 255
204 224 255
204 224 255
204 224 255
204 224 255
204 224 255
204 224 255
204 224 255
204 224 255
204 224 255
204 224 255
204 224 255
204 224 255
204 224 255
204 224 255
204 224 255
204 225 255
204 225 255
204 225 255
204 225 255
204 225 255
197 216 244
185 200 223
190 207 231
194 211 238
186 202 227
202 221 251
203 223 253
204 225 255
204 225 255
204 224 255
204 224 255
204 224 255
204 224 255
204 224 255
204 224 255
204 224 255
204 224 255
204 224 255
204 224 255
204 224 255
204 224 255
204 224 255
204 224 255
204 224 255
204 224 255
204 224 255
204 224 255
204 224 255
205 225 255
205 225 255
205 225 255
205 225 255
205 225 255
205 225 255
205 225 255
205 225 255
205 225 255
205 225 255
205 225 255
205 225 255
205 225 255
205 225 255
205 225 255
205 225 255
205 225 255
205 225 255
205 225 255
205 225 255
205 225 255
205 225 255
205 225 255
205 225 255
205 225 255
205 225 255
205 225 255
205 225 255
205 225 255
205 225 255
205 225 255
205 225 255
205 225 255
205 225 255
205 225 255
205 225 255
205 225 255
205 225 255
205 225 255
205 225 255
205 225 255
205 225 255
205 225 255
205 225 255
205 225 255
205 225 255
205 225 255
205 225 255
205 225 255
205 225 255
205 225 255
205 225 255
205 225 255
205 225 255
206 225 255
206 225 255
205 225 255
206 225 255
206 225 255
206 225 255
206 225 255
206 225 255
206 225 255
206 225 255
206 225 255
206 225 255
206 225 255
206 225 255
206 225 255
206 225 255
206 226 255
206 225 255
206 225 255
206 225 255
206 226 255
206 225 255
206 225 255
206 225 255
206 225 255
206 225 255
206 225 255
206 225 255
206 225 255
206 225 255
206 225 255
206 225 255
206 225 255
206 225 255
206 225 255
206 225 255
206 225 255
206 225 255
206 225 255
206 225 255
205 225 255
205 225 255
205 225 255
205 225 255
205 225 255
205 225 255
206 226 255
206 226 255
206 226 255
206 226 255
206 226 255
206 226 255
206 226 255
206 226 255
206 226 255
206 226 255
206 226 255
206 226 255
206 226 255
206 226 255
207 226 255
206 226 255
207 226 255
207 226 255
207 226 255
207 226 255
207 226 255
207 226 255
207 226 255
207 226 255
207 226 255
207 226 255
207 226 255
207 226 255
207 226 255
207 226 255
207 226 255
207 226 255
207 226 255
207 226 255
207 226 255
206 226 255
206 226 255
207 226 255
206 226 255
206 226 255
206 226 255
206 226 255
206 226 255
206 226 255
206 226 255
206 226 255
206 226 255
206 226 255
206 226 255
206 226 255
207 226 255
207 226 255
207 226 255
207 226 255
207 226 255
207 226 255
207 226 255
207 226 255
207 226 255
207 226 255
207 226 255
207 226 255
207 226 255
207 226 255
207 226 255
207 226 255
207 226 255
207 226 255
207 226 255
207 226 255
207 226 255
207 226 255
207 226 255
207 226 255
207 226 255
207 226 255
207 226 255
207 226 255
207 226 255
207 226 255
207 226 255
207 226 255
207 226 255
207 226 255
207 226 255
207 226 255
207 226 255
207 226 255
207 226 255
207 226 255
207 226 255
207 226 255
207 226 255
207 226 255
207 226 255
207 226 255
207 226 255
207 226 255
207 226 255
207 226 255
